<!DOCTYPE svg PUBLIC "-//W3C//DTD SVG 1.1//EN" "http://www.w3.org/Graphics/SVG/1.1/DTD/svg11.dtd">

<!-- Uploaded to: SVG Repo, www.svgrepo.com, Transformed by: SVG Repo Mixer Tools -->
<svg version="1.1" id="Layer_1" xmlns="http://www.w3.org/2000/svg" xmlns:xlink="http://www.w3.org/1999/xlink" viewBox="0 0 512 512" xml:space="preserve" width="50px" height="50px" fill="#000000">

<g id="SVGRepo_bgCarrier" stroke-width="0"/>

<g id="SVGRepo_tracerCarrier" stroke-linecap="round" stroke-linejoin="round"/>

<g id="SVGRepo_iconCarrier"> <path style="fill:#665247;" d="M483.488,440.302L305.411,262.224c-6.521-6.515-6.521-17.091,0-23.607 c6.521-6.521,17.087-6.521,23.607,0l178.077,178.077c6.521,6.515,6.521,17.091,0,23.607 C500.573,446.824,490.009,446.824,483.488,440.302z"/> <path style="fill:#EDF0F2;" d="M350.603,267.116H150.266c-46.101,0-83.474-37.373-83.474-83.474V44.519h367.284v139.123 C434.077,229.743,396.705,267.116,350.603,267.116z"/> <path style="fill:#DAE1E6;" d="M250.435,267.116h100.168c46.101,0,83.474-37.372,83.474-83.474V44.519H250.435V267.116z"/> <path style="fill:#E6563A;" d="M37.428,13.922c-9.355,6.216-17.376,14.261-23.573,23.628C5.129,50.735,0.014,66.512,0.014,83.474 v33.389c0,27.618,22.467,50.084,50.084,50.084c25.295,0,46.05-18.912,49.4-43.301c0.307-2.239,0.684-4.461,0.684-6.784 c0-9.205,7.489-16.695,16.695-16.695h6.342L37.428,13.922z"/> <path style="fill:#D9472B;" d="M486.869,37.308c-6.229-9.343-14.292-17.346-23.665-23.531l-85.596,86.391h6.385 c9.205,0,16.695,7.489,16.695,16.695c0,2.308,0.377,4.514,0.682,6.741c3.33,24.409,24.093,43.343,49.402,43.343 c27.618,0,50.084-22.467,50.084-50.084V83.474C500.856,66.411,495.691,50.542,486.869,37.308z"/> <path style="fill:#FF7459;" d="M146.924,0H83.487C66.47,0,50.64,5.144,37.428,13.922c-9.355,6.216-17.376,14.261-23.573,23.628 l85.643,86.097c0.307-2.239,0.684-4.461,0.684-6.784c0-9.205,7.489-16.695,16.695-16.695h60.482L146.924,0z"/> <g> <path style="fill:#E6563A;" d="M463.204,13.778C450.037,5.093,434.302,0,417.382,0h-63.437l-30.434,100.168h60.482 c9.205,0,16.695,7.489,16.695,16.695c0,2.308,0.377,4.514,0.682,6.741l85.499-86.296C480.64,27.965,472.579,19.961,463.204,13.778z "/> <polygon style="fill:#E6563A;" points="112.044,0 142.479,100.168 358.391,100.168 388.825,0 "/> </g> <polygon style="fill:#D9472B;" points="250.435,100.168 358.391,100.168 388.825,0 250.435,0 "/> <path style="fill:#806A5F;" d="M283.824,267.116h-66.779c-9.22,0-16.695-7.475-16.695-16.695V0h100.168v250.421 C300.519,259.641,293.046,267.116,283.824,267.116z"/> <g> <rect x="250.433" style="fill:#736056;" width="50.084" height="267.116"/> <path style="fill:#736056;" d="M473.7,507.075c-6.568,6.567-17.029,6.567-23.596,0L138.469,195.44 c-6.567-6.455-6.567-17.14,0-23.595c6.568-6.567,17.029-6.567,23.596,0L473.7,483.48C480.267,489.935,480.267,500.62,473.7,507.075 z"/> </g> <path style="fill:#665247;" d="M473.7,507.075c-6.568,6.567-17.029,6.567-23.596,0L250.435,307.406v-47.19L473.7,483.48 C480.267,489.935,480.267,500.62,473.7,507.075z"/> </g>

</svg>